<?xml version="1.0" encoding="UTF-8"?>
<svg id="Layer_2" xmlns="http://www.w3.org/2000/svg" viewBox="0 0 472.33 357.55">
  <defs>
    <style>
      .cls-1 {
        fill: #fff;
      }
    </style>
  </defs>
  <g id="Layer_1-2" data-name="Layer_1">
    <path class="cls-1" d="M24.88,4.13C12,1.58,0,11.45,0,24.58v183.21c0,8.8,10.69,13.12,16.83,6.81,11.86-12.19,23.52-24.93,34.99-38.2,26.63-34.38,43.24-67.92,47.64-100.43,2.17-15.67,17.1-22,23.13-5.97,3.51,18.64-5.18,41.56-17.83,62.49-1.47,2.44,1.8,4.92,3.75,2.84,18.26-19.57,33.32-42.05,46.14-66.7,7.4-16.27,11.36-25.3,19.8-23.01,11.71,4.11,9.89,15.16,4.81,28.61-9.93,23.61-26.17,46.48-45.91,68.94-1.86,2.12.88,5.15,3.17,3.5,17.33-12.48,33.03-27.04,48.36-43.98,9.78-12.43,18.44-18.77,24.05-13.1,7.03,7.25,7.16,13.16-1.24,24.32-11.41,14.37-23.54,26.52-36.54,36-2.95,2.15-1.84,6.73,1.75,7.42,12.41,2.4,24.11,10.7,32.99,25.95,4.1,7.55,5.85,16.53-.52,22.7-6.27,5.54-12.67,1.89-18.27-5.94-8.2-11.15-12.39-16.31-20.84-19.46-16.55-5.01-30.74-2.86-42.79,10.59-7.99,9.58-12.37,29.13-1.76,42.46,13.01,15.64,26.6,21.39,47.1,13.7,6.25-2.77,14.62-10.74,17.78-17.96,2.89-8.88,8.97-14.4,16.81-10.34,6.66,4.29,8.45,11.11,5.68,20.13-3.42,9-10.04,16.61-18.42,23.47-11.22,9.09-22.65,12.21-35.52,13.97-29.79,5.25-60.88,16.81-92.89,32.79l-.17.1c-6.14,3.56-4.59,12.83,2.37,14.2l171.73,33.87V45.8L24.88,4.13ZM145.05,238.12c-12.67,0-22.95-10.28-22.95-22.95s10.28-22.95,22.95-22.95,22.95,10.28,22.95,22.95-10.28,22.95-22.95,22.95Z"/>
    <path class="cls-1" d="M447.45,4.13l-211.28,41.67v311.76l171.73-33.87c6.96-1.37,8.51-10.64,2.37-14.2l-.17-.1c-32.01-15.98-63.1-27.54-92.89-32.79-12.87-1.76-24.3-4.89-35.52-13.97-8.38-6.87-15-14.48-18.42-23.47-2.78-9.02-.99-15.85,5.68-20.13,7.84-4.06,13.92,1.46,16.81,10.34,3.16,7.22,11.52,15.2,17.78,17.96,20.5,7.69,34.09,1.94,47.1-13.7,10.61-13.33,6.23-32.89-1.76-42.46-12.05-13.44-26.24-15.59-42.79-10.59-8.45,3.15-12.64,8.31-20.84,19.46-5.61,7.83-12.01,11.48-18.27,5.94-6.37-6.17-4.62-15.15-.52-22.7,8.88-15.25,20.57-23.55,32.99-25.95,3.58-.69,4.69-5.27,1.75-7.42-13-9.49-25.13-21.63-36.54-36-8.4-11.16-8.27-17.07-1.24-24.32,5.61-5.67,14.27.67,24.05,13.1,15.33,16.95,31.03,31.5,48.36,43.98,2.29,1.65,5.03-1.38,3.17-3.5-19.74-22.46-35.99-45.33-45.91-68.94-5.08-13.45-6.9-24.5,4.81-28.61,8.44-2.29,12.4,6.73,19.8,23.01,12.83,24.65,27.89,47.13,46.14,66.7,1.94,2.08,5.22-.4,3.75-2.84-12.66-20.93-21.34-43.85-17.83-62.49,6.03-16.03,20.96-9.7,23.13,5.97,4.4,32.51,21.01,66.05,47.64,100.43,11.47,13.27,23.13,26,34.99,38.2,6.14,6.31,16.83,1.99,16.83-6.81V24.58c0-13.13-12-23-24.88-20.45ZM312.59,192.22c12.67,0,22.95,10.28,22.95,22.95s-10.28,22.95-22.95,22.95-22.95-10.28-22.95-22.95,10.28-22.95,22.95-22.95Z"/>
    <path class="cls-1" d="M236.17,39.8L45.92,2.27c-1.36-.27-1.17-2.27.22-2.27h69.17c4.5,0,8.98.61,13.32,1.8l107.53,29.65v8.34Z"/>
    <path class="cls-1" d="M236.17,39.8L426.41,2.27C427.77,2.01,427.57,0,426.19,0h-69.17c-4.5,0-8.98.61-13.32,1.8l-107.53,29.65v8.34Z"/>
  </g>
</svg>